<?xml version="1.0" encoding="UTF-8"?><svg id="a" xmlns="http://www.w3.org/2000/svg" width="63.14722mm" height="47.625mm" viewBox="0 0 179 135"><defs><style>.b{fill:#222221;}.c{fill:#fffffb;}</style></defs><path class="b" d="M138.87524,12.5h-10.37524v-3.99609c0-4.67712-3.82678-8.50391-8.50397-8.50391h-46.99207c-4.67719,0-8.50397,3.82678-8.50397,8.50391v117.99213c0,4.67719,3.82678,8.50397,8.50397,8.50397h46.99207c4.67719,0,8.50397-3.82678,8.50397-8.50397v-3.99603h10.37524c22.0686,0,40.12476-18.05615,40.12476-40.12476v-29.75049c0-22.0686-18.05615-40.12476-40.12476-40.12476Z"/><path class="b" d="M7.14474,24h52.26053c1.43207,0,2.59473,1.16266,2.59473,2.59473v19.81053c0,1.43207-1.16266,2.59473-2.59473,2.59473H7.14474C3.20145,49,0,45.79855,0,41.85526v-10.71053C0,27.20145,3.20145,24,7.14474,24Z"/><path class="b" d="M7.14474,86h52.26053c1.43207,0,2.59473,1.16266,2.59473,2.59473v19.81053c0,1.43207-1.16266,2.59473-2.59473,2.59473H7.14474C3.20145,111,0,107.79855,0,103.85526v-10.71053C0,89.20145,3.20145,86,7.14474,86Z"/><path class="c" d="M94.39111,87.1875l14.41406-21.0498-12.12891-18.7207c-1.14258-1.81641-1.99951-3.37646-2.5708-4.68018-.57129-1.30322-.85693-2.55566-.85693-3.75732,0-1.23047.54932-2.33594,1.64795-3.31787,1.09863-.98145,2.43896-1.47217,4.021-1.47217,1.81641,0,3.22998.53467,4.24072,1.604,1.01074,1.06982,2.40967,3.0542,4.19678,5.95459l9.66797,15.64453,10.32715-15.64453c.84961-1.31836,1.57471-2.4458,2.17529-3.38379.6001-.9375,1.1792-1.71387,1.73584-2.3291.55615-.61523,1.1792-1.07666,1.86768-1.38428.68799-.30762,1.48682-.46143,2.39502-.46143,1.64062,0,2.98096.49072,4.021,1.47217,1.03955.98193,1.56006,2.14648,1.56006,3.49365,0,1.96289-1.12793,4.62939-3.38379,7.99805l-12.7002,18.98438,13.66699,21.0498c1.23047,1.8457,2.12402,3.37695,2.68066,4.59229.55615,1.21582.83496,2.36621.83496,3.44971,0,1.02588-.24902,1.96289-.74707,2.8125-.49854.8501-1.20166,1.52344-2.10938,2.02148-.9082.49805-1.93359.74707-3.07617.74707-1.23047,0-2.27051-.25684-3.12012-.76904-.8501-.51221-1.53809-1.14941-2.06543-1.91162-.52734-.76172-1.50928-2.24121-2.94434-4.43848l-11.33789-17.8418-12.04102,18.36914c-.93799,1.46533-1.604,2.49023-1.99951,3.07617-.39551.58643-.87207,1.15771-1.42822,1.71387-.55664.55664-1.21582.99561-1.97754,1.31836-.76221.32227-1.65527.4834-2.68066.4834-1.58203,0-2.89355-.4834-3.93311-1.4502-1.04004-.9668-1.56006-2.37305-1.56006-4.21875,0-2.16797,1.06934-4.81885,3.20801-7.9541Z"/></svg>