<?xml version="1.0" encoding="UTF-8"?><svg id="a" xmlns="http://www.w3.org/2000/svg" width="210mm" height="210mm" xmlns:xlink="http://www.w3.org/1999/xlink" viewBox="0 0 595.27559 595.27559"><defs><style>.c{fill:#fff;}.d,.e,.f{fill:none;}.g{clip-path:url(#b);}.e{stroke-width:30px;}.e,.f{stroke:#030402;stroke-miterlimit:10;}.h{fill:#222221;}.f{stroke-width:35px;}</style><clipPath id="b"><polygon class="d" points="195.99219 327.12998 195.99219 508.1378 51 508.1378 51 51.1378 487.16016 51.1378 487.16016 327.12998 195.99219 327.12998"/></clipPath></defs><g class="g"><circle class="e" cx="250.91914" cy="264.85442" r="125.23895"/></g><rect class="h" x="213.40488" y="344.1378" width="321" height="205" rx="8.50394" ry="8.50394"/><rect class="h" x="245.90488" y="318.1378" width="52" height="43" rx="11.60821" ry="11.60821"/><rect class="h" x="449.90488" y="318.1378" width="52" height="43" rx="11.60821" ry="11.60821"/><path class="c" d="M317.49102,492.53233h-25.19531v-37.20703h-37.40234v-25.58594h37.40234v-37.40234h25.19531v37.40234h37.59766v25.58594h-37.59766v37.20703Z"/><path class="c" d="M418.46409,455.3253v-25.58594h74.4523v25.58594h-74.4523Z"/><line class="f" x1="249.38762" y1="109.30287" x2="249.38762" y2="25.54434"/><line class="f" x1="327.28867" y1="129.332" x2="369.12514" y2="56.77029"/><line class="f" x1="384.77158" y1="185.59436" x2="457.25915" y2="143.62956"/><line class="f" x1="406.46775" y1="263.04767" x2="490.22615" y2="262.89947"/><line class="f" x1="175.02968" y1="400.64626" x2="133.45025" y2="473.35556"/><line class="f" x1="117.34803" y1="344.58766" x2="45.00942" y2="386.80872"/><line class="f" x1="95.37791" y1="267.21161" x2="11.62056" y2="267.65622"/><line class="f" x1="114.99325" y1="189.20535" x2="42.21049" y2="147.75463"/><line class="f" x1="170.94969" y1="131.4246" x2="128.60071" y2="59.16081"/><rect class="d" width="595.27559" height="595.27559"/></svg>