<?xml version="1.0" encoding="UTF-8"?><svg xmlns="http://www.w3.org/2000/svg" width="210mm" height="210mm" xmlns:xlink="http://www.w3.org/1999/xlink" viewBox="0 0 595.27559 595.27559"><defs><style>.f{fill:#fff;}.g{fill:#030402;}.h,.i{fill:none;}.i{stroke:#030402;stroke-miterlimit:10;stroke-width:30px;}.j{fill:#222221;}.k{clip-path:url(#c);}</style><clipPath id="c"><polygon class="h" points="195.99219 327.12998 195.99219 508.1378 51 508.1378 51 51.1378 487.16016 51.1378 487.16016 327.12998 195.99219 327.12998"/></clipPath></defs><g id="a"><rect class="j" x="213.40488" y="344.1378" width="321" height="205" rx="8.50394" ry="8.50394"/><rect class="j" x="245.90488" y="318.1378" width="52" height="43" rx="11.60821" ry="11.60821"/><rect class="j" x="449.90488" y="318.1378" width="52" height="43" rx="11.60821" ry="11.60821"/><path class="f" d="M317.49102,492.53233h-25.19531v-37.20703h-37.40234v-25.58594h37.40234v-37.40234h25.19531v37.40234h37.59766v25.58594h-37.59766v37.20703Z"/><path class="f" d="M418.46409,455.3253v-25.58594h74.4523v25.58594h-74.4523Z"/></g><g id="b"><g class="k"><circle class="i" cx="250.91914" cy="264.85442" r="125.23895"/></g><g id="d"><polygon class="g" points="281.43855 112.16122 260.65005 109.18832 258.64841 24.29164 307.15492 31.2284 281.43855 112.16122"/><polygon class="g" points="175.91757 128.09825 158.09213 139.20021 101.92843 75.50491 143.52113 49.60033 175.91757 128.09825"/><polygon class="g" points="105.4031 208.20053 98.90297 228.16922 14.92465 215.55594 30.09163 168.96235 105.4031 208.20053"/><polygon class="g" points="102.97479 314.8906 110.8493 334.35832 38.45215 378.74419 20.0783 333.31951 102.97479 314.8906"/><polygon class="g" points="169.77181 398.11815 188.32688 407.95224 161.47375 488.51503 118.17858 465.56881 169.77181 398.11815"/><polygon class="g" points="406.32262 267.7639 405.50256 246.77992 488.65026 229.51979 490.56374 278.48242 406.32262 267.7639"/><polygon class="g" points="371.64025 166.83918 357.50921 151.3049 410.04685 84.58721 443.01926 120.83386 371.64025 166.83918"/></g></g><g id="e"><rect class="h" width="595.27559" height="595.27559"/></g></svg>