<?xml version="1.0" encoding="UTF-8"?><svg xmlns="http://www.w3.org/2000/svg" width="210mm" height="210mm" viewBox="0 0 595.27559 595.27559"><defs><style>.c{fill:none;}</style></defs><g id="a"><path d="M50.30113,361.55698v-127.83838c0-36.71973,19.03955-58.47949,55.0791-58.47949s55.07959,21.75977,55.07959,58.47949v25.15967h-35.35986v-27.53955c0-15.64014-7.47998-22.1001-18.69971-22.1001s-18.69971,6.45996-18.69971,22.1001v132.93896c0,15.63965,7.47998,21.75977,18.69971,21.75977s18.69971-6.12012,18.69971-21.75977v-36.38037h35.35986v33.65967c0,36.71973-19.04004,58.47949-55.07959,58.47949s-55.0791-21.75977-55.0791-58.47949Z"/><path d="M180.85874,360.19761v-125.11914c0-38.07959,20.06006-59.83936,56.77979-59.83936s56.7793,21.75977,56.7793,59.83936v125.11914c0,38.0791-20.06006,59.83887-56.7793,59.83887s-56.77979-21.75977-56.77979-59.83887ZM257.01792,362.57749v-129.87891c0-17-7.47998-23.45996-19.37939-23.45996s-19.37988,6.45996-19.37988,23.45996v129.87891c0,17,7.47998,23.45996,19.37988,23.45996s19.37939-6.45996,19.37939-23.45996Z"/><path d="M313.11704,360.19761v-13.6001h35.35938v16.31982c0,17,7.48047,23.12012,19.37988,23.12012s19.37988-6.12012,19.37988-23.7998c0-19.72021-7.48047-32.30029-31.95898-53.71973-31.28027-27.54004-41.48047-46.91992-41.48047-74.11914,0-37.3999,19.37988-59.15967,55.75977-59.15967s54.39941,21.75977,54.39941,59.83936v9.85986h-35.36035v-12.23975c0-17-6.79883-23.45996-18.69922-23.45996s-18.69922,6.45996-18.69922,22.77979c0,17.33984,7.81934,29.91992,32.29883,51.33936,31.2793,27.54004,41.13965,46.57959,41.13965,76.15918,0,38.75977-19.71973,60.51953-56.43945,60.51953s-55.0791-21.75977-55.0791-59.83887Z"/><path d="M478.35532,315.31773l-45.21875-136.67871h39.7793l25.5,87.37939h.67969l25.49902-87.37939h36.37988l-45.21875,136.67871v101.31934h-37.40039v-101.31934Z"/></g><g id="b"><rect class="c" width="595.27559" height="595.27559"/></g></svg>