<?xml version="1.0" encoding="UTF-8"?><svg xmlns="http://www.w3.org/2000/svg" width="210mm" height="210mm" viewBox="0 0 595.27559 595.27559"><defs><style>.c{fill:none;}</style></defs><g id="a"><path d="M59.33018,176.93906h98.93896v34h-61.53955v66.29883h48.27979v34h-48.27979v103.69922h-37.39941v-237.99805Z"/><path d="M176.28819,176.93906h37.39941v203.99805h61.53955v34h-98.93896v-237.99805Z"/><path d="M291.88633,358.49766v-181.55859h37.39893v184.27832c0,17,7.14062,23.12012,19.04004,23.12012s19.04004-6.12012,19.04004-23.12012v-184.27832h36.03906v181.55859c0,38.0791-19.03906,59.83887-55.75879,59.83887s-55.75928-21.75977-55.75928-59.83887Z"/><path d="M462.56651,293.21787l-41.14062-116.27881h39.44043l25.15918,76.83936h.67969l25.83984-76.83936h35.36035l-41.13965,116.27881,43.17969,121.71924h-39.43945l-27.2002-82.95947h-.67969l-27.87988,82.95947h-35.35938l43.17969-121.71924Z"/></g><g id="b"><rect class="c" width="595.27559" height="595.27559"/></g></svg>