<?xml version="1.0" encoding="UTF-8"?><svg xmlns="http://www.w3.org/2000/svg" width="210mm" height="210mm" viewBox="0 0 595.27559 595.27559"><defs><style>.c{fill:none;}</style></defs><g id="a"><path d="M174.38975,360.19761v-125.11914c0-38.07959,19.04004-59.83936,55.75977-59.83936s55.75928,21.75977,55.75928,59.83936v20.3999h-35.35986v-22.77979c0-17-7.47998-23.45996-19.37988-23.45996s-19.37939,6.45996-19.37939,23.45996v130.21875c0,17,7.47998,23.12012,19.37939,23.12012s19.37988-6.12012,19.37988-23.12012v-46.57959h-18.69971v-33.99951h54.05957v77.85938c0,38.0791-19.04004,59.83887-55.75928,59.83887s-55.75977-21.75977-55.75977-59.83887Z"/><path d="M307.32725,360.19761v-125.11914c0-38.07959,20.05957-59.83936,56.7793-59.83936s56.7793,21.75977,56.7793,59.83936v125.11914c0,38.0791-20.06055,59.83887-56.7793,59.83887s-56.7793-21.75977-56.7793-59.83887ZM383.48545,362.57749v-129.87891c0-17-7.47949-23.45996-19.37891-23.45996-11.90039,0-19.37988,6.45996-19.37988,23.45996v129.87891c0,17,7.47949,23.45996,19.37988,23.45996,11.89941,0,19.37891-6.45996,19.37891-23.45996Z"/></g><g id="b"><rect class="c" width="595.27559" height="595.27559"/></g></svg>