<?xml version="1.0" encoding="UTF-8"?><svg id="a" xmlns="http://www.w3.org/2000/svg" width="63.5mm" height="63.14722mm" viewBox="0 0 180 179"><defs><style>.c{fill:#fff;}.d,.e{fill:none;}.e{stroke:#fff;stroke-miterlimit:10;stroke-width:12px;}</style></defs><path class="c" d="M129.85891,75.59081h-8.37557v-3.22591c0-3.77568-3.08923-6.86491-6.86496-6.86491h-37.93506c-3.77573,0-6.86496,3.08923-6.86496,6.86491v95.25093c0,3.77573,3.08923,6.86496,6.86496,6.86496h37.93506c3.77573,0,6.86496-3.08923,6.86496-6.86496v-3.22586h8.37557c17.81521,0,32.39132-14.5761,32.39132-32.39132v-24.01653c0-17.81521-14.5761-32.39132-32.39132-32.39132Z"/><path class="c" d="M23.51747,84.87436h42.1881c1.15606,0,2.09464.93858,2.09464,2.09464v15.99235c0,1.15606-.93858,2.09464-2.09464,2.09464H23.51747c-3.18328,0-5.7677-2.58442-5.7677-5.7677v-8.64624c0-3.18328,2.58442-5.7677,5.7677-5.7677Z"/><path class="c" d="M23.51747,134.9248h42.1881c1.15606,0,2.09464.93858,2.09464,2.09464v15.99235c0,1.15606-.93858,2.09464-2.09464,2.09464H23.51747c-3.18328,0-5.7677-2.58442-5.7677-5.7677v-8.64624c0-3.18328,2.58442-5.7677,5.7677-5.7677Z"/><line class="e" x1="18.5" y1="33.5" x2="108.84378" y2="33.5"/><polygon class="c" points="96.95508 50.93161 162 33.51172 96.95508 16.06839 96.95508 50.93161"/><rect id="b" class="d" width="180" height="179"/></svg>