<?xml version="1.0" encoding="UTF-8"?><svg xmlns="http://www.w3.org/2000/svg" width="210mm" height="210mm" xmlns:xlink="http://www.w3.org/1999/xlink" viewBox="0 0 595.27559 595.27559"><defs><style>.h{clip-path:url(#f);}.i{fill:#fff;}.j,.k,.l{fill:none;}.m{clip-path:url(#b);}.n{clip-path:url(#e);}.o{fill:#fffffb;}.k{stroke-width:40px;}.k,.l{stroke:#fff;stroke-miterlimit:10;}.l{stroke-width:30px;}</style><clipPath id="b"><path class="j" d="M372.03786,567.84732v-214.41528c0-5.20573-4.25923-9.46496-9.46496-9.46496H32.15541V19.04592h559.14141v548.8014h-219.25896Z"/></clipPath><clipPath id="e"><rect class="j" width="595.27559" height="595.27559"/></clipPath><clipPath id="f"><polygon class="j" points="-36.61228 134.09635 -215.12995 164.01746 -234.51626 48.35331 216.19673 -27.19009 283.71393 375.63639 11.51861 421.25868 -36.61228 134.09635"/></clipPath></defs><g id="a"><g class="m"><polyline class="k" points="536.99164 256.23595 536.99164 519.04754 224.61666 519.04754 224.61666 256.23595"/><polyline class="k" points="579.68913 274.23595 380.80415 158.29392 181.91918 274.23595"/></g></g><g id="c"><rect class="o" x="62.11778" y="332.13969" width="52" height="43" rx="11.60821" ry="11.60821"/><rect class="o" x="266.11778" y="332.13969" width="52" height="43" rx="11.60821" ry="11.60821"/><path class="i" d="M349.36022,563.13969H45.36809c-4.67717,0-8.50394-3.82677-8.50394-8.50394v-187.99213c0-4.67717,3.82677-8.50394,8.50394-8.50394h303.99213c4.67717,0,8.50394,3.82677,8.50394,8.50394v187.99213c0,4.67717-3.82677,8.50394-8.50394,8.50394ZM140.9503,469.32719h37.59766v-25.58594h-37.59766v-37.40234h-25.19531v37.40234h-37.40234v25.58594h37.40234v37.20703h25.19531v-37.20703ZM316.37567,469.32719v-25.58594h-74.4523v25.58594h74.4523Z"/></g><g id="d"><g class="n"><polygon class="i" points="196.2821 53.40222 198.52643 32.5225 283.30124 27.55415 278.06448 76.27352 196.2821 53.40222"/><polygon class="i" points="45.14039 183.6497 66.08287 182.09656 86.23923 264.59004 37.37343 268.21404 45.14039 183.6497"/><polygon class="i" points="144.79095 145.46028 159.82172 130.79481 228.3353 180.96793 193.2635 215.18735 144.79095 145.46028"/><g class="h"><circle class="l" cx="42.61649" cy="28.23931" r="125.23895"/></g></g></g><g id="g"><rect class="j" width="595.27559" height="595.27559"/></g></svg>