<?xml version="1.0" encoding="UTF-8"?><svg xmlns="http://www.w3.org/2000/svg" width="210mm" height="210mm" xmlns:xlink="http://www.w3.org/1999/xlink" viewBox="0 0 595.27559 595.27559"><defs><style>.h{clip-path:url(#f);}.i{fill:#fff;}.j,.k{fill:none;}.l{clip-path:url(#d);}.k{stroke:#fff;stroke-miterlimit:10;stroke-width:30px;}</style><clipPath id="d"><rect class="j" width="595.27559" height="595.27559"/></clipPath><clipPath id="f"><rect class="j" x="315.50883" width="279.76676" height="595.27559"/></clipPath></defs><g id="a"><rect class="i" x="167.19024" y="332.1378" width="52" height="43" rx="11.60821" ry="11.60821"/><rect class="i" x="371.19024" y="332.1378" width="52" height="43" rx="11.60821" ry="11.60821"/><path class="i" d="M447.18631,563.13969H143.19418c-4.67717,0-8.50394-3.82677-8.50394-8.50394v-187.99213c0-4.67717,3.82677-8.50394,8.50394-8.50394h303.99213c4.67717,0,8.50394,3.82677,8.50394,8.50394v187.99213c0,4.67717-3.82677,8.50394-8.50394,8.50394ZM238.77639,469.32719h37.59766v-25.58594h-37.59766v-37.40234h-25.19531v37.40234h-37.40234v25.58594h37.40234v37.20703h25.19531v-37.20703ZM414.20175,469.32719v-25.58594h-74.4523v25.58594h74.4523Z"/></g><g id="b"><g class="l"><polygon class="i" points="76.19165 76.10059 55.97016 70.43566 65.08368 -13.99417 112.26715 -.776 76.19165 76.10059"/><polygon class="i" points="29.06337 379.48931 49.9972 377.82356 70.59691 460.20745 21.7513 464.09419 29.06337 379.48931"/><polygon class="i" points="179.66314 246.69331 181.59321 225.78219 266.28372 219.53953 261.78021 268.33214 179.66314 246.69331"/><polygon class="i" points="158.47161 142.10083 146.49253 124.8526 207.3009 65.57532 235.25209 105.82121 158.47161 142.10083"/><circle class="k" cx="25.97354" cy="223.4927" r="125.23895"/></g></g><g id="e"><rect class="i" x="543.21201" y="171.6961" width="52.06358" height="423.57949"/><rect class="i" x="354.68905" y="216.45842" width="241.18728" height="37.39929"/><line class="k" x1="446.27915" y1="241.91518" x2="559.32864" y2="352.45567"/><path class="i" d="M415.36687,138.89847h12.26593s5.62905-.4621,5.72775-4.57358c.19277-8.03251-13.55965-17.43762-17.362-24.59015-3.8024-7.15258,5.64064-8.69786,5.64064-19.02933s-9.0845-17.48394-28.95263-17.48394-28.95263,7.15253-28.95263,17.48394,9.44304,11.87675,5.64064,19.02933c-3.8024,7.15253-17.55476,16.55764-17.362,24.59015.09865,4.11148,5.72775,4.57358,5.72775,4.57358h12.26593c.45029,1.39105.38967,2.90646-.63168,4.82773-3.8024,7.15253-17.55476,16.5577-17.362,24.59021.09865,4.11142,5.72775,4.57358,5.72775,4.57358h69.89248s5.62905-.46215,5.72775-4.57358c.19277-8.03251-13.55965-17.43768-17.362-24.59021-1.02136-1.92127-1.08197-3.43668-.63168-4.82773Z"/><rect class="i" x="378.7714" y="171.80181" width="27.83033" height="48.32186"/><g class="h"><path class="i" d="M606.92411,95.60692h12.26593s5.62905-.4621,5.72775-4.57358c.19277-8.03251-13.55965-17.43762-17.362-24.59015-3.8024-7.15258,5.64064-8.69786,5.64064-19.02933s-9.0845-17.48394-28.95263-17.48394-28.95263,7.15253-28.95263,17.48394,9.44304,11.87675,5.64064,19.02933c-3.8024,7.15253-17.55476,16.55764-17.362,24.59015.09865,4.11148,5.72775,4.57358,5.72775,4.57358h12.26593c.45029,1.39105.38967,2.90646-.63168,4.82773-3.8024,7.15253-17.55476,16.5577-17.362,24.59021.09865,4.11142,5.72775,4.57358,5.72775,4.57358h69.89248s5.62905-.46215,5.72775-4.57358c.19277-8.03251-13.55965-17.43768-17.362-24.59021-1.02136-1.92127-1.08197-3.43668-.63168-4.82773Z"/><rect class="i" x="570.32864" y="128.51025" width="27.83033" height="48.32186"/></g></g><g id="g"><rect class="j" width="595.27559" height="595.27559"/></g></svg>