<?xml version="1.0" encoding="UTF-8"?><svg xmlns="http://www.w3.org/2000/svg" width="210mm" height="210mm" xmlns:xlink="http://www.w3.org/1999/xlink" viewBox="0 0 595.27559 595.27559"><defs><style>.g{fill:#fff;}.h,.i{fill:none;}.j{clip-path:url(#e);}.i{stroke:#000;stroke-miterlimit:10;stroke-width:30px;}.k{clip-path:url(#c);}</style><clipPath id="c"><rect class="h" width="595.27559" height="595.27559"/></clipPath><clipPath id="e"><rect class="h" x="315.50883" width="279.76676" height="595.27559"/></clipPath></defs><g id="a"><rect x="134.69024" y="358.13969" width="321" height="205" rx="8.50394" ry="8.50394"/><rect x="167.19024" y="332.13969" width="52" height="43" rx="11.60821" ry="11.60821"/><rect x="371.19024" y="332.13969" width="52" height="43" rx="11.60821" ry="11.60821"/><path class="g" d="M238.77639,506.53422h-25.19531v-37.20703h-37.40234v-25.58594h37.40234v-37.40234h25.19531v37.40234h37.59766v25.58594h-37.59766v37.20703Z"/><path class="g" d="M339.74946,469.32719v-25.58594h74.4523v25.58594h-74.4523Z"/></g><g id="b"><g class="k"><polygon points="76.19165 76.10059 55.97016 70.43566 65.08368 -13.99417 112.26715 -.776 76.19165 76.10059"/><polygon points="29.06337 379.48931 49.9972 377.82356 70.59691 460.20745 21.7513 464.09419 29.06337 379.48931"/><polygon points="179.66314 246.69331 181.59321 225.78219 266.28372 219.53953 261.78021 268.33214 179.66314 246.69331"/><polygon points="158.47161 142.10083 146.49253 124.8526 207.3009 65.57532 235.25209 105.82121 158.47161 142.10083"/><circle class="i" cx="25.97354" cy="223.4927" r="125.23895"/></g></g><g id="d"><rect x="543.21201" y="171.6961" width="52.06358" height="423.57949"/><rect x="354.68905" y="216.45842" width="241.18728" height="37.39929"/><line class="i" x1="446.27915" y1="241.91518" x2="559.32864" y2="352.45567"/><path d="M415.36687,138.89847h12.26593s5.62905-.4621,5.72775-4.57358c.19277-8.03251-13.55965-17.43762-17.362-24.59015-3.8024-7.15258,5.64064-8.69786,5.64064-19.02933s-9.0845-17.48394-28.95263-17.48394-28.95263,7.15253-28.95263,17.48394,9.44304,11.87675,5.64064,19.02933c-3.8024,7.15253-17.55476,16.55764-17.362,24.59015.09865,4.11148,5.72775,4.57358,5.72775,4.57358h12.26593c.45029,1.39105.38967,2.90646-.63168,4.82773-3.8024,7.15253-17.55476,16.5577-17.362,24.59021.09865,4.11142,5.72775,4.57358,5.72775,4.57358h69.89248s5.62905-.46215,5.72775-4.57358c.19277-8.03251-13.55965-17.43768-17.362-24.59021-1.02136-1.92127-1.08197-3.43668-.63168-4.82773Z"/><rect x="378.7714" y="171.80181" width="27.83033" height="48.32186"/><g class="j"><path d="M606.92411,95.60692h12.26593s5.62905-.4621,5.72775-4.57358c.19277-8.03251-13.55965-17.43762-17.362-24.59015-3.8024-7.15258,5.64064-8.69786,5.64064-19.02933s-9.0845-17.48394-28.95263-17.48394-28.95263,7.15253-28.95263,17.48394,9.44304,11.87675,5.64064,19.02933c-3.8024,7.15253-17.55476,16.55764-17.362,24.59015.09865,4.11148,5.72775,4.57358,5.72775,4.57358h12.26593c.45029,1.39105.38967,2.90646-.63168,4.82773-3.8024,7.15253-17.55476,16.5577-17.362,24.59021.09865,4.11142,5.72775,4.57358,5.72775,4.57358h69.89248s5.62905-.46215,5.72775-4.57358c.19277-8.03251-13.55965-17.43768-17.362-24.59021-1.02136-1.92127-1.08197-3.43668-.63168-4.82773Z"/><rect x="570.32864" y="128.51025" width="27.83033" height="48.32186"/></g></g><g id="f"><rect class="h" width="595.27559" height="595.27559"/></g></svg>