<?xml version="1.0" encoding="UTF-8"?><svg id="a" xmlns="http://www.w3.org/2000/svg" width="76.34207mm" height="76.66748mm" viewBox="0 0 216.40271 217.32514"><defs><style>.b{fill:#fefefe;}.c{fill:#fff;}.d{fill:#222221;}.e{fill:#fffffb;}.f{fill:none;stroke:#222221;stroke-miterlimit:10;stroke-width:7px;}</style></defs><path class="d" d="M76.87709,124.82514h105.05125c11.30011,0,20.47437,9.17426,20.47437,20.47437v37.77093c0,4.00398-3.25072,7.2547-7.2547,7.2547H63.65741c-4.00398,0-7.2547-3.25072-7.2547-7.2547v-37.77093c0-11.30011,9.17426-20.47437,20.47437-20.47437Z"/><rect x="76.49978" y=".28758" width="6" height="31" transform="translate(4.35782 -14.59577) rotate(10.78371)"/><rect x="101.91246" y="12.56746" width="6" height="31" transform="translate(43.83046 -61.72895) rotate(40.79767)"/><rect x="117.77486" y="35.91236" width="6" height="31" transform="translate(129.63525 -79.55058) rotate(70.81164)"/><rect x="30.63269" y="95.03071" width="6" height="31" transform="translate(-13.2807 216.11163) rotate(-139.11856)"/><rect x="14.80443" y="71.66265" width="6" height="31" transform="translate(-58.73025 132.51425) rotate(-109.1046)"/><rect x="12.78765" y="43.51069" width="6" height="31" transform="translate(-45.1445 63.3449) rotate(-79.09064)"/><rect x="25.12323" y="18.125" width="6" height="31" transform="translate(-15.70546 32.84854) rotate(-49.07668)"/><rect x="48.50285" y="2.31383" width="6" height="31" transform="translate(-2.99372 17.79786) rotate(-19.06272)"/><circle class="e" cx="69.30271" cy="69.32514" r="41"/><rect class="d" x="66.40271" y="167.32514" width="27" height="50" rx="9.71218" ry="9.71218"/><rect class="d" x="165.40271" y="167.32514" width="27" height="50" rx="9.71218" ry="9.71218"/><path class="f" d="M97.90831,74.32514h62.9888c16.56054,0,30.0056,13.44506,30.0056,30.0056v41.19517c0,13.13515-10.66408,23.79923-23.79923,23.79923h-75.40154c-13.13515,0-23.79923-10.66408-23.79923-23.79923v-41.19517c0-16.56054,13.44506-30.0056,30.0056-30.0056Z"/><circle class="c" cx="82.40271" cy="158.82514" r="11.5"/><circle class="c" cx="176.40271" cy="158.82514" r="11.5"/><rect class="d" x="42.40271" y="120.32514" width="27" height="19" rx="9.49999" ry="9.49999"/><rect class="d" x="189.40271" y="120.32514" width="27" height="19" rx="9.49999" ry="9.49999"/><path d="M71.4047,104.25672c15.4613-.91656,28.21838-11.86578,31.85315-26.43158h-5.34967c-14.59052,0-26.46332,11.85028-26.50348,26.43158Z"/><path d="M97.90818,70.82514h6.35663c.021-.49792.0379-.99695.0379-1.5,0-19.32996-15.67004-35-35-35s-35,15.67004-35,35c0,17.66925,13.09576,32.27234,30.10907,34.65253.1908-18.31244,15.13965-33.15253,33.4964-33.15253Z"/><path class="b" d="M71.4047,104.25672c.04016-14.5813,11.91296-26.43158,26.50348-26.43158h5.34967c.56268-2.25482.90546-4.59589,1.00696-7h-6.35663c-18.35675,0-33.3056,14.84009-33.4964,33.15253,1.59906.22369,3.23022.34747,4.89093.34747.7063,0,1.40601-.02716,2.10199-.06842Z"/></svg>