<?xml version="1.0" encoding="UTF-8"?><svg xmlns="http://www.w3.org/2000/svg" width="260.76811mm" height="214.93726mm" xmlns:xlink="http://www.w3.org/1999/xlink" viewBox="0 0 739.18521 609.27097"><defs><style>.h{clip-path:url(#f);}.i{fill:#fff;}.j,.k{fill:none;}.l{clip-path:url(#d);}.k{stroke:#fff;stroke-miterlimit:10;stroke-width:30px;}</style><clipPath id="d"><rect class="j" x="114.26541" y="13.99538" width="595.27559" height="595.27559"/></clipPath><clipPath id="f"><rect class="j" x="429.77424" y="13.99538" width="279.76676" height="595.27559"/></clipPath></defs><g id="a"><rect class="i" x="281.45565" y="346.13318" width="52" height="43" rx="11.60821" ry="11.60821"/><rect class="i" x="485.45565" y="346.13318" width="52" height="43" rx="11.60821" ry="11.60821"/><path class="i" d="M561.45171,577.13318h-303.99213c-4.67717,0-8.50394-3.82677-8.50394-8.50394v-187.99213c0-4.67717,3.82677-8.50394,8.50394-8.50394h303.99213c4.67717,0,8.50394,3.82677,8.50394,8.50394v187.99213c0,4.67717-3.82677,8.50394-8.50394,8.50394ZM353.04179,483.32068h37.59766v-25.58594h-37.59766v-37.40234h-25.19531v37.40234h-37.40234v25.58594h37.40234v37.20703h25.19531v-37.20703ZM528.46716,483.32068v-25.58594h-74.4523v25.58594h74.4523Z"/></g><g id="b"><g class="l"><polygon class="i" points="190.45705 90.09476 170.23557 84.42983 179.34909 0 226.53256 13.21817 190.45705 90.09476"/><polygon class="i" points="143.32878 393.48348 164.26261 391.81773 184.86232 474.20162 136.01671 478.08837 143.32878 393.48348"/><polygon class="i" points="293.92854 260.68748 295.85862 239.77636 380.54913 233.5337 376.04562 282.32631 293.92854 260.68748"/><polygon class="i" points="272.73702 156.095 260.75794 138.84677 321.56631 79.5695 349.5175 119.81538 272.73702 156.095"/><circle class="k" cx="140.23895" cy="237.48808" r="125.23895"/></g></g><g id="e"><rect class="i" x="657.47742" y="185.69148" width="52.06358" height="423.57949"/><rect class="i" x="468.95445" y="230.4538" width="241.18728" height="37.39929"/><line class="k" x1="560.54456" y1="255.91056" x2="673.59405" y2="366.45105"/><path class="i" d="M529.63228,152.89386h12.26593s5.62905-.4621,5.72775-4.57358c.19277-8.03251-13.55965-17.43762-17.362-24.59015-3.8024-7.15258,5.64064-8.69786,5.64064-19.02933s-9.0845-17.48394-28.95263-17.48394-28.95263,7.15253-28.95263,17.48394,9.44304,11.87675,5.64064,19.02933c-3.8024,7.15253-17.55476,16.55764-17.362,24.59015.09865,4.11148,5.72775,4.57358,5.72775,4.57358h12.26593c.45029,1.39105.38967,2.90646-.63168,4.82773-3.8024,7.15253-17.55476,16.5577-17.362,24.59021.09865,4.11142,5.72775,4.57358,5.72775,4.57358h69.89248s5.62905-.46215,5.72775-4.57358c.19277-8.03251-13.55965-17.43768-17.362-24.59021-1.02136-1.92127-1.08197-3.43668-.63168-4.82773Z"/><rect class="i" x="493.03681" y="185.79719" width="27.83033" height="48.32186"/><g class="h"><path class="i" d="M721.18952,109.6023h12.26593s5.62905-.4621,5.72775-4.57358c.19277-8.03251-13.55965-17.43762-17.362-24.59015-3.8024-7.15258,5.64064-8.69786,5.64064-19.02933s-9.0845-17.48394-28.95263-17.48394-28.95263,7.15253-28.95263,17.48394,9.44304,11.87675,5.64064,19.02933c-3.8024,7.15253-17.55476,16.55764-17.362,24.59015.09865,4.11148,5.72775,4.57358,5.72775,4.57358h12.26593c.45029,1.39105.38967,2.90646-.63168,4.82773-3.8024,7.15253-17.55476,16.5577-17.362,24.59021.09865,4.11142,5.72775,4.57358,5.72775,4.57358h69.89248s5.62905-.46215,5.72775-4.57358c.19277-8.03251-13.55965-17.43768-17.362-24.59021-1.02136-1.92127-1.08197-3.43668-.63168-4.82773Z"/><rect class="i" x="684.59405" y="142.50563" width="27.83033" height="48.32186"/></g></g><g id="g"><rect class="j" x="114.26541" y="13.99538" width="595.27559" height="595.27559"/></g></svg>