<?xml version="1.0" encoding="UTF-8"?><svg xmlns="http://www.w3.org/2000/svg" width="260.76811mm" height="214.93683mm" xmlns:xlink="http://www.w3.org/1999/xlink" viewBox="0 0 739.18521 609.26976"><defs><style>.g{stroke:#222221;}.g,.h,.i{fill:none;}.g,.i{stroke-miterlimit:10;stroke-width:30px;}.j{fill:#fff;}.k{fill:#030402;}.i{stroke:#030402;}.l{clip-path:url(#e);}.m{fill:#222221;}.n{clip-path:url(#c);}</style><clipPath id="c"><rect class="h" x="114.26541" y="13.99417" width="595.27559" height="595.27559"/></clipPath><clipPath id="e"><rect class="h" x="429.77424" y="13.99417" width="279.76676" height="595.27559"/></clipPath></defs><g id="a"><rect class="m" x="248.95565" y="372.13386" width="321" height="205" rx="8.50394" ry="8.50394"/><rect class="m" x="281.45565" y="346.13386" width="52" height="43" rx="11.60821" ry="11.60821"/><rect class="m" x="485.45565" y="346.13386" width="52" height="43" rx="11.60821" ry="11.60821"/><path class="j" d="M353.04179,520.52839h-25.19531v-37.20703h-37.40234v-25.58594h37.40234v-37.40234h25.19531v37.40234h37.59766v25.58594h-37.59766v37.20703Z"/><path class="j" d="M454.01487,483.32136v-25.58594h74.4523v25.58594h-74.4523Z"/></g><g id="b"><g class="n"><polygon class="m" points="190.45705 90.09476 170.23557 84.42983 179.34909 0 226.53256 13.21817 190.45705 90.09476"/><polygon class="m" points="143.32878 393.48348 164.26261 391.81773 184.86232 474.20162 136.01671 478.08837 143.32878 393.48348"/><polygon class="m" points="293.92854 260.68748 295.85862 239.77636 380.54913 233.5337 376.04562 282.32631 293.92854 260.68748"/><polygon class="m" points="272.73702 156.095 260.75794 138.84677 321.56631 79.5695 349.5175 119.81538 272.73702 156.095"/><circle class="g" cx="140.23895" cy="237.48687" r="125.23895"/></g></g><g id="d"><rect class="k" x="657.47742" y="185.69027" width="52.06358" height="423.57949"/><rect class="k" x="468.95445" y="230.45259" width="241.18728" height="37.39929"/><line class="i" x1="560.54456" y1="255.90935" x2="673.59405" y2="366.44984"/><path class="k" d="M529.63228,152.89264h12.26593s5.62905-.4621,5.72775-4.57358c.19277-8.03251-13.55965-17.43762-17.362-24.59015-3.8024-7.15258,5.64064-8.69786,5.64064-19.02933s-9.0845-17.48394-28.95263-17.48394-28.95263,7.15253-28.95263,17.48394,9.44304,11.87675,5.64064,19.02933c-3.8024,7.15253-17.55476,16.55764-17.362,24.59015.09865,4.11148,5.72775,4.57358,5.72775,4.57358h12.26593c.45029,1.39105.38967,2.90646-.63168,4.82773-3.8024,7.15253-17.55476,16.5577-17.362,24.59021.09865,4.11142,5.72775,4.57358,5.72775,4.57358h69.89248s5.62905-.46215,5.72775-4.57358c.19277-8.03251-13.55965-17.43768-17.362-24.59021-1.02136-1.92127-1.08197-3.43668-.63168-4.82773Z"/><rect class="k" x="493.03681" y="185.79598" width="27.83033" height="48.32186"/><g class="l"><path class="k" d="M721.18952,109.60109h12.26593s5.62905-.4621,5.72775-4.57358c.19277-8.03251-13.55965-17.43762-17.362-24.59015-3.8024-7.15258,5.64064-8.69786,5.64064-19.02933s-9.0845-17.48394-28.95263-17.48394-28.95263,7.15253-28.95263,17.48394,9.44304,11.87675,5.64064,19.02933c-3.8024,7.15253-17.55476,16.55764-17.362,24.59015.09865,4.11148,5.72775,4.57358,5.72775,4.57358h12.26593c.45029,1.39105.38967,2.90646-.63168,4.82773-3.8024,7.15253-17.55476,16.5577-17.362,24.59021.09865,4.11142,5.72775,4.57358,5.72775,4.57358h69.89248s5.62905-.46215,5.72775-4.57358c.19277-8.03251-13.55965-17.43768-17.362-24.59021-1.02136-1.92127-1.08197-3.43668-.63168-4.82773Z"/><rect class="k" x="684.59405" y="142.50442" width="27.83033" height="48.32186"/></g></g><g id="f"><rect class="h" x="114.26541" y="13.99417" width="595.27559" height="595.27559"/></g></svg>