<?xml version="1.0" encoding="UTF-8"?><svg xmlns="http://www.w3.org/2000/svg" width="210mm" height="217.74491mm" xmlns:xlink="http://www.w3.org/1999/xlink" viewBox="0 0 595.27559 617.22967"><defs><style>.e{fill:#fff;}.f,.g{fill:none;}.h{clip-path:url(#b);}.g{stroke:#fff;stroke-miterlimit:10;stroke-width:40px;}</style><clipPath id="b"><path class="f" d="M372.03786,548.8014v-214.41528c0-5.20573-4.25923-9.46496-9.46496-9.46496H32.15541V0h559.14141v548.8014h-219.25896Z"/></clipPath></defs><g id="a"><g class="h"><polyline class="g" points="514.73913 217.6426 514.73913 480.45419 202.36416 480.45419 202.36416 217.6426"/><polyline class="g" points="557.43662 235.6426 358.55164 119.70057 159.66667 235.6426"/></g></g><g id="c"><path class="e" d="M349.36022,544.09376H45.36809c-4.67717,0-8.50394-3.82677-8.50394-8.50394v-187.99213c0-4.67717,3.82677-8.50394,8.50394-8.50394h303.99213c4.67717,0,8.50394,3.82677,8.50394,8.50394v187.99213c0,4.67717-3.82677,8.50394-8.50394,8.50394ZM140.9503,450.28126h37.59766v-25.58594h-37.59766v-37.40234h-25.19531v37.40234h-37.40234v25.58594h37.40234v37.20703h25.19531v-37.20703ZM316.37567,450.28126v-25.58594h-74.4523v25.58594h74.4523Z"/><rect class="e" x="62.11778" y="313.09376" width="52" height="43" rx="11.60821" ry="11.60821"/><rect class="e" x="266.11778" y="313.09376" width="52" height="43" rx="11.60821" ry="11.60821"/></g><g id="d"><rect class="f" y="21.95408" width="595.27559" height="595.27559"/></g></svg>