<?xml version="1.0" encoding="UTF-8"?>
<svg xmlns="http://www.w3.org/2000/svg" viewBox="0 0 32 32">
    <path fill="#000000" d="M23,13h-1.5v-0.6c0-0.7-0.6-1.2-1.2-1.2h-6.6c-0.7,0-1.2,0.6-1.2,1.2v16.4c0,0.7,0.6,1.2,1.2,1.2h6.6
        c0.7,0,1.2-0.6,1.2-1.2v-0.6H23c3.1,0,5.6-2.5,5.6-5.6v-4.1C28.6,15.5,26.1,13,23,13z"/>
    <path fill="#000000" d="M4,15h7.3c0.2,0,0.4,0.2,0.4,0.4v2.8c0,0.2-0.2,0.4-0.4,0.4H4c-0.6,0-1-0.4-1-1v-1.5C3,15.4,3.4,15,4,15z"/>
    <path fill="#000000" d="M4,23.5h7.3c0.2,0,0.4,0.2,0.4,0.4v2.8c0,0.2-0.2,0.4-0.4,0.4H4c-0.6,0-1-0.4-1-1v-1.5C3,23.9,3.4,23.5,4,23.5z"/>
</svg>